<svg width="97" height="29" viewBox="0 0 97 29" fill="none" xmlns="http://www.w3.org/2000/svg">
<path d="M32.32 20.028L28.594 8.832C28.51 8.592 28.54 8.37 28.684 8.166C28.828 7.962 29.026 7.86 29.278 7.86H29.926C30.226 7.86 30.502 7.956 30.754 8.148C31.006 8.328 31.168 8.562 31.24 8.85L33.994 18.516C33.994 18.528 34 18.534 34.012 18.534C34.024 18.534 34.03 18.528 34.03 18.516L36.82 8.832C36.904 8.544 37.066 8.31 37.306 8.13C37.558 7.95 37.834 7.86 38.134 7.86H38.71C38.962 7.86 39.16 7.962 39.304 8.166C39.448 8.37 39.478 8.592 39.394 8.832L35.668 20.028C35.572 20.316 35.398 20.55 35.146 20.73C34.906 20.91 34.63 21 34.318 21H33.67C33.37 21 33.094 20.91 32.842 20.73C32.602 20.55 32.428 20.316 32.32 20.028ZM45.2441 13.962C44.8961 13.458 44.3681 13.206 43.6601 13.206C42.9521 13.206 42.4181 13.458 42.0581 13.962C41.7101 14.454 41.5361 15.24 41.5361 16.32C41.5361 17.4 41.7101 18.192 42.0581 18.696C42.4181 19.188 42.9521 19.434 43.6601 19.434C44.3681 19.434 44.8961 19.188 45.2441 18.696C45.6041 18.192 45.7841 17.4 45.7841 16.32C45.7841 15.24 45.6041 14.454 45.2441 13.962ZM47.0081 19.92C46.2161 20.76 45.1001 21.18 43.6601 21.18C42.2201 21.18 41.0981 20.76 40.2941 19.92C39.5021 19.068 39.1061 17.868 39.1061 16.32C39.1061 14.772 39.5021 13.578 40.2941 12.738C41.0981 11.886 42.2201 11.46 43.6601 11.46C45.1001 11.46 46.2161 11.886 47.0081 12.738C47.8121 13.578 48.2141 14.772 48.2141 16.32C48.2141 17.868 47.8121 19.068 47.0081 19.92ZM54.0639 13.26C52.7439 13.26 52.0839 14.22 52.0839 16.14C52.0839 17.136 52.2579 17.88 52.6059 18.372C52.9659 18.864 53.4519 19.11 54.0639 19.11C54.6039 19.11 55.0659 18.918 55.4499 18.534C55.8459 18.15 56.0439 17.7 56.0439 17.184V15.24C56.0439 14.688 55.8459 14.22 55.4499 13.836C55.0659 13.452 54.6039 13.26 54.0639 13.26ZM53.3079 20.91C52.2519 20.91 51.3879 20.49 50.7159 19.65C50.0439 18.798 49.7079 17.628 49.7079 16.14C49.7079 14.652 50.0259 13.5 50.6619 12.684C51.3099 11.868 52.1919 11.46 53.3079 11.46C53.8719 11.46 54.3699 11.562 54.8019 11.766C55.2339 11.97 55.6599 12.312 56.0799 12.792C56.0919 12.804 56.1039 12.81 56.1159 12.81C56.1279 12.81 56.1339 12.804 56.1339 12.792V12.666C56.1459 12.378 56.2539 12.138 56.4579 11.946C56.6619 11.742 56.9079 11.64 57.1959 11.64H57.3939C57.6699 11.64 57.9039 11.742 58.0959 11.946C58.2999 12.15 58.4019 12.39 58.4019 12.666V20.28C58.4019 23.52 56.7819 25.14 53.5419 25.14C52.9659 25.14 52.3599 25.092 51.7239 24.996C51.4359 24.948 51.1959 24.804 51.0039 24.564C50.8239 24.336 50.7339 24.072 50.7339 23.772C50.7339 23.532 50.8299 23.34 51.0219 23.196C51.2259 23.064 51.4479 23.028 51.6879 23.088C52.2639 23.232 52.8639 23.304 53.4879 23.304C54.3759 23.304 55.0239 23.07 55.4319 22.602C55.8399 22.146 56.0439 21.39 56.0439 20.334V19.776C56.0439 19.764 56.0379 19.758 56.0259 19.758C56.0139 19.758 56.0019 19.764 55.9899 19.776C55.2699 20.532 54.3759 20.91 53.3079 20.91ZM63.8166 21.18C62.7606 21.18 61.9926 20.892 61.5126 20.316C61.0326 19.728 60.7926 18.738 60.7926 17.346V12.666C60.7926 12.39 60.8946 12.15 61.0986 11.946C61.3026 11.742 61.5426 11.64 61.8186 11.64H62.1066C62.3826 11.64 62.6226 11.742 62.8266 11.946C63.0306 12.15 63.1326 12.39 63.1326 12.666V17.094C63.1326 17.934 63.2466 18.516 63.4746 18.84C63.7026 19.164 64.0866 19.326 64.6266 19.326C65.1186 19.326 65.5746 19.116 65.9946 18.696C66.4266 18.276 66.6426 17.826 66.6426 17.346V12.666C66.6426 12.39 66.7446 12.15 66.9486 11.946C67.1526 11.742 67.3926 11.64 67.6686 11.64H68.0286C68.3046 11.64 68.5386 11.742 68.7306 11.946C68.9346 12.15 69.0366 12.39 69.0366 12.666V19.974C69.0366 20.25 68.9346 20.49 68.7306 20.694C68.5386 20.898 68.3046 21 68.0286 21H67.7946C67.5066 21 67.2606 20.904 67.0566 20.712C66.8646 20.508 66.7626 20.262 66.7506 19.974L66.7326 19.848C66.7326 19.836 66.7266 19.83 66.7146 19.83C66.7026 19.83 66.6906 19.836 66.6786 19.848C65.8626 20.736 64.9086 21.18 63.8166 21.18ZM73.0834 21C72.8074 21 72.5674 20.898 72.3634 20.694C72.1594 20.49 72.0574 20.25 72.0574 19.974V12.666C72.0574 12.39 72.1594 12.15 72.3634 11.946C72.5674 11.742 72.8074 11.64 73.0834 11.64H73.5514C73.8274 11.64 74.0674 11.742 74.2714 11.946C74.4754 12.15 74.5774 12.39 74.5774 12.666V19.974C74.5774 20.25 74.4754 20.49 74.2714 20.694C74.0674 20.898 73.8274 21 73.5514 21H73.0834ZM73.0834 9.66C72.8074 9.66 72.5674 9.558 72.3634 9.354C72.1594 9.15 72.0574 8.91 72.0574 8.634V8.526C72.0574 8.25 72.1594 8.01 72.3634 7.806C72.5674 7.602 72.8074 7.5 73.0834 7.5H73.5514C73.8274 7.5 74.0674 7.602 74.2714 7.806C74.4754 8.01 74.5774 8.25 74.5774 8.526V8.634C74.5774 8.91 74.4754 9.15 74.2714 9.354C74.0674 9.558 73.8274 9.66 73.5514 9.66H73.0834ZM80.8214 17.22C79.5614 16.944 78.6614 16.566 78.1214 16.086C77.5934 15.606 77.3294 14.982 77.3294 14.214C77.3294 13.35 77.6474 12.678 78.2834 12.198C78.9314 11.706 79.8854 11.46 81.1454 11.46C81.9374 11.46 82.7234 11.532 83.5034 11.676C83.7674 11.724 83.9774 11.856 84.1334 12.072C84.3014 12.276 84.3854 12.516 84.3854 12.792C84.3854 13.02 84.2954 13.206 84.1154 13.35C83.9354 13.482 83.7314 13.518 83.5034 13.458C82.8314 13.29 82.1234 13.206 81.3794 13.206C80.2994 13.206 79.7594 13.506 79.7594 14.106C79.7594 14.394 79.8614 14.634 80.0654 14.826C80.2694 15.018 80.6174 15.168 81.1094 15.276C82.4894 15.552 83.4314 15.924 83.9354 16.392C84.4514 16.86 84.7094 17.544 84.7094 18.444C84.7094 19.308 84.3854 19.98 83.7374 20.46C83.0894 20.94 82.1474 21.18 80.9114 21.18C80.1074 21.18 79.2854 21.084 78.4454 20.892C78.1814 20.832 77.9654 20.694 77.7974 20.478C77.6294 20.25 77.5454 19.992 77.5454 19.704C77.5454 19.476 77.6354 19.302 77.8154 19.182C78.0074 19.062 78.2114 19.032 78.4274 19.092C79.2074 19.308 79.9454 19.416 80.6414 19.416C81.7334 19.416 82.2794 19.092 82.2794 18.444C82.2794 18.132 82.1714 17.886 81.9554 17.706C81.7514 17.526 81.3734 17.364 80.8214 17.22ZM88.0138 21C87.7378 21 87.4978 20.898 87.2938 20.694C87.1018 20.49 87.0058 20.25 87.0058 19.974V8.526C87.0058 8.25 87.1018 8.01 87.2938 7.806C87.4978 7.602 87.7378 7.5 88.0138 7.5H88.3738C88.6498 7.5 88.8898 7.602 89.0938 7.806C89.2978 8.01 89.3998 8.25 89.3998 8.526V12.702C89.3998 12.714 89.4058 12.72 89.4178 12.72C89.4298 12.72 89.4418 12.714 89.4538 12.702C90.2938 11.874 91.2178 11.46 92.2258 11.46C93.3178 11.46 94.1098 11.772 94.6018 12.396C95.0938 13.02 95.3398 14.088 95.3398 15.6V19.974C95.3398 20.25 95.2378 20.49 95.0338 20.694C94.8298 20.898 94.5898 21 94.3138 21H94.0258C93.7498 21 93.5098 20.898 93.3058 20.694C93.1018 20.49 92.9998 20.25 92.9998 19.974V15.96C92.9998 14.916 92.8858 14.226 92.6578 13.89C92.4418 13.554 92.0278 13.386 91.4158 13.386C90.9358 13.386 90.4798 13.602 90.0478 14.034C89.6158 14.466 89.3998 14.928 89.3998 15.42V19.974C89.3998 20.25 89.2978 20.49 89.0938 20.694C88.8898 20.898 88.6498 21 88.3738 21H88.0138Z" fill="black"/>
<path d="M12.7137 22.0833L17.8146 2.60821C18.2171 1.07162 19.6056 0 21.194 0C23.5666 0 25.249 2.3146 24.5168 4.57142L17.0757 27.5061C16.8082 28.3306 16.04 28.8889 15.1733 28.8889H11.7783L12.7137 22.0833ZM4.77831 0C6.36056 0 7.74362 1.06746 8.14452 2.59807L13.2482 22.0833L14.2217 28.8889H10.7722C9.9041 28.8889 9.13513 28.3289 8.86871 27.5027L1.46649 4.54771C0.741948 2.30085 2.41752 0 4.77831 0Z" fill="url(#paint0_linear_721_186)"/>
<mask id="mask0_721_186" style="mask-type:alpha" maskUnits="userSpaceOnUse" x="1" y="0" width="24" height="29">
<path d="M12.7137 22.0833L17.8146 2.60821C18.2171 1.07162 19.6056 0 21.194 0C23.5666 0 25.249 2.3146 24.5168 4.57142L17.0757 27.5061C16.8082 28.3306 16.04 28.8889 15.1733 28.8889H11.7783L12.7137 22.0833ZM4.77831 0C6.36056 0 7.74362 1.06746 8.14452 2.59807L13.2482 22.0833L14.2217 28.8889H10.7722C9.9041 28.8889 9.13513 28.3289 8.86871 27.5027L1.46649 4.54771C0.741948 2.30085 2.41752 0 4.77831 0Z" fill="url(#paint1_linear_721_186)"/>
</mask>
<g mask="url(#mask0_721_186)">
<path d="M8.66323 -9.25861C8.69682 -9.29526 8.73067 -9.33085 8.76471 -9.36539C8.73134 -9.33028 8.6975 -9.29468 8.66323 -9.25861C6.46541 -6.86122 5.30818 0.0454871 17.6666 9.4474C30.2139 18.993 24.2812 26.5201 19.7465 29.0905L4.12853 27.2425L-5.7005 15.7514C-4.1065 10.9438 -0.725107 1.07443 0.0484955 0.0575643C0.812104 -0.946164 6.04393 -6.5019 8.66323 -9.25861Z" fill="url(#paint2_linear_721_186)"/>
<path d="M5.84247 -2.13661C5.87143 -2.16802 5.90063 -2.19851 5.93001 -2.22809C5.90122 -2.19801 5.87204 -2.16751 5.84247 -2.13661C3.94772 -0.0816526 3.0235 5.90585 13.9754 14.2377C25.0947 22.697 19.9938 29.1615 16.0535 31.3364L2.34358 29.5272L-6.41902 19.4125C-5.08475 15.255 -2.25004 6.72161 -1.58537 5.84792C-0.929282 4.98553 3.58306 0.225151 5.84247 -2.13661Z" fill="url(#paint3_linear_721_186)"/>
<path d="M-1.37975 0.752311C-1.35079 0.720896 -1.3216 0.690401 -1.29222 0.66083C-1.321 0.690904 -1.35018 0.721402 -1.37975 0.752311C-3.2745 2.80726 -4.19872 8.79477 6.75316 17.1267C17.8725 25.5859 12.7716 32.0505 8.83128 34.2253L-4.87864 32.4161L-13.6412 22.3014C-12.307 18.1439 -9.47227 9.61052 -8.80759 8.73684C-8.1515 7.87444 -3.63916 3.11407 -1.37975 0.752311Z" fill="url(#paint4_linear_721_186)"/>
</g>
<defs>
<linearGradient id="paint0_linear_721_186" x1="13" y1="0" x2="13" y2="28.8889" gradientUnits="userSpaceOnUse">
<stop stop-color="#198752"/>
<stop offset="0.466667" stop-color="#189B5C"/>
<stop offset="0.982292" stop-color="#20D17C"/>
</linearGradient>
<linearGradient id="paint1_linear_721_186" x1="13" y1="0" x2="13" y2="28.8889" gradientUnits="userSpaceOnUse">
<stop stop-color="#198752"/>
<stop offset="0.466667" stop-color="#189B5C"/>
<stop offset="0.982292" stop-color="#20D17C"/>
</linearGradient>
<linearGradient id="paint2_linear_721_186" x1="21.4053" y1="0.251256" x2="-4.33333" y2="34.6667" gradientUnits="userSpaceOnUse">
<stop stop-color="#198752"/>
<stop offset="0.206404" stop-color="#189B5C"/>
<stop offset="1" stop-color="#20D17C"/>
</linearGradient>
<linearGradient id="paint3_linear_721_186" x1="17.132" y1="6.29409" x2="-8.66667" y2="37.5555" gradientUnits="userSpaceOnUse">
<stop offset="0.553202" stop-color="#198752"/>
<stop offset="0.673942" stop-color="#189B5C"/>
<stop offset="1" stop-color="#20D17C"/>
</linearGradient>
<linearGradient id="paint4_linear_721_186" x1="9.90979" y1="9.183" x2="-6.70707" y2="31.0251" gradientUnits="userSpaceOnUse">
<stop stop-color="#198752"/>
<stop offset="0.466667" stop-color="#189B5C"/>
<stop offset="0.982292" stop-color="#20D17C"/>
</linearGradient>
</defs>
</svg>
