<svg width="186" height="21" viewBox="0 0 186 21" fill="none" xmlns="http://www.w3.org/2000/svg">
<g clip-path="url(#clip0_710_3768)">
<path d="M66.0749 9.08222C66.0749 7.83074 67.1464 6.81443 68.0898 5.91673C68.7499 5.28848 69.1552 4.43725 69.1552 3.5C69.1552 1.567 67.4309 0 65.3036 0C63.1764 0 61.4521 1.567 61.4521 3.5C61.4521 4.43737 61.8575 5.28869 62.5179 5.91698C63.4615 6.81476 64.5333 7.8312 64.5333 9.08292V11.9171C64.5333 13.1688 63.4615 14.1852 62.5179 15.083C61.8575 15.7113 61.4521 16.5626 61.4521 17.5C61.4521 19.433 63.1764 21 65.3036 21C67.4309 21 69.1552 19.433 69.1552 17.5C69.1552 16.5627 68.7499 15.7115 68.0898 15.0833C67.1464 14.1856 66.0749 13.1693 66.0749 11.9178V9.08222Z" fill="#BB742F"/>
<path d="M15.1522 0C14.6817 0 14.3003 0.352576 14.3003 0.787498V12.0834C14.3003 14.7 12.6826 16.5522 9.83548 16.5522C6.98837 16.5522 5.33833 14.7 5.33833 12.0834V0.7875C5.33833 0.352576 4.95693 0 4.48642 0H0.851908C0.381411 0 0 0.352576 0 0.787498V12.201C0 17.3754 3.91477 20.874 9.83548 20.874C15.7238 20.874 19.6386 17.3754 19.6386 12.201V0.7875C19.6386 0.352576 19.2572 0 18.7867 0H15.1522Z" fill="#101828"/>
<path d="M34.2481 0C34.7184 0 35.0997 0.352576 35.0997 0.787498V11.5835C35.0997 12.0977 35.8167 12.3054 36.1341 11.883L44.8107 0.338196C44.9699 0.12634 45.2312 0 45.5102 0H50.3277C50.798 0 51.1796 0.352576 51.1796 0.787498V19.7925C51.1796 20.2274 50.798 20.58 50.3277 20.58H46.7255C46.2549 20.58 45.8736 20.2274 45.8736 19.7925V8.75938C45.8736 8.24264 45.1508 8.03675 44.8362 8.46382L36.1624 20.2358C36.0037 20.4511 35.7401 20.58 35.4581 20.58H30.6459C30.1753 20.58 29.7939 20.2274 29.7939 19.7925V0.7875C29.7939 0.352576 30.1753 0 30.6459 0H34.2481Z" fill="#101828"/>
<path d="M95.8456 0C95.3751 0 94.9937 0.352576 94.9937 0.787498V11.5835C94.9937 12.0977 94.2768 12.3054 93.9593 11.883L85.283 0.338196C85.1238 0.12634 84.8625 0 84.5835 0H79.766C79.2954 0 78.9141 0.352576 78.9141 0.787498V19.7925C78.9141 20.2274 79.2954 20.58 79.766 20.58H83.3682C83.8388 20.58 84.2201 20.2274 84.2201 19.7925V8.75938C84.2201 8.24264 84.9426 8.03675 85.2575 8.46382L93.9313 20.2358C94.09 20.4511 94.3536 20.58 94.6354 20.58H99.4479C99.9184 20.58 100.3 20.2274 100.3 19.7925V0.7875C100.3 0.352576 99.9184 0 99.4479 0H95.8456Z" fill="#101828"/>
<path d="M126.245 4.0866C126.715 4.0866 127.097 3.73401 127.097 3.2991V0.787498C127.097 0.352576 126.715 0 126.245 0H111.545C111.075 0 110.693 0.352576 110.693 0.787498V19.7925C110.693 20.2274 111.075 20.58 111.545 20.58H126.245C126.715 20.58 127.097 20.2274 127.097 19.7925V17.2809C127.097 16.8459 126.715 16.4934 126.245 16.4934H116.787C116.316 16.4934 115.935 16.1408 115.935 15.7059V12.6357C115.935 12.2008 116.316 11.8482 116.787 11.8482H125.695C126.165 11.8482 126.547 11.4956 126.547 11.0607V8.84308C126.547 8.40816 126.165 8.05558 125.695 8.05558H116.787C116.316 8.05558 115.935 7.70301 115.935 7.2681V4.8741C115.935 4.43917 116.316 4.0866 116.787 4.0866H126.245Z" fill="#101828"/>
<path d="M153.189 4.0866C153.659 4.0866 154.041 3.73401 154.041 3.2991V0.787498C154.041 0.352576 153.659 0 153.189 0H138.49C138.019 0 137.638 0.352576 137.638 0.787498V19.7925C137.638 20.2274 138.019 20.58 138.49 20.58H153.189C153.659 20.58 154.041 20.2274 154.041 19.7925V17.2809C154.041 16.8459 153.659 16.4934 153.189 16.4934H143.731C143.26 16.4934 142.879 16.1408 142.879 15.7059V12.6357C142.879 12.2008 143.26 11.8482 143.731 11.8482H152.639C153.11 11.8482 153.491 11.4956 153.491 11.0607V8.84308C153.491 8.40816 153.11 8.05558 152.639 8.05558H143.731C143.26 8.05558 142.879 7.70301 142.879 7.2681V4.8741C142.879 4.43917 143.26 4.0866 143.731 4.0866H153.189Z" fill="#101828"/>
<path d="M173.964 0H165.434C164.963 0 164.582 0.352576 164.582 0.787498V19.7925C164.582 20.2274 164.963 20.58 165.434 20.58H173.964C180.823 20.58 186 16.1994 186 10.29C186 4.41 180.823 0 173.964 0ZM174.062 16.3464H170.805C170.334 16.3464 169.953 15.9938 169.953 15.5589V5.0211C169.953 4.58617 170.334 4.2336 170.805 4.2336H174.062C177.912 4.2336 180.597 6.8502 180.597 10.29C180.597 13.7298 177.944 16.3464 174.062 16.3464Z" fill="#101828"/>
</g>
<defs>
<clipPath id="clip0_710_3768">
<rect width="186" height="21" fill="white"/>
</clipPath>
</defs>
</svg>
