<svg width="164" height="20" viewBox="0 0 164 20" fill="none" xmlns="http://www.w3.org/2000/svg">
<path fillRule="evenodd" clipRule="evenodd" d="M58.1697 8.23989C58.1697 7.28632 58.8988 6.50992 59.6409 5.91112C60.3985 5.2998 60.8819 4.37204 60.8819 3.33331C60.8819 1.49237 59.3637 0 57.491 0C55.6183 0 54.1002 1.49237 54.1002 3.33331C54.1002 4.3721 54.5836 5.29991 55.3413 5.91122C56.0835 6.51003 56.8126 7.28647 56.8126 8.24011V11.7598C56.8126 12.7135 56.0834 13.4899 55.3412 14.0887C54.5835 14.7 54.1001 15.6279 54.1001 16.6667C54.1001 18.5076 55.6182 20 57.4909 20C59.3636 20 60.8818 18.5076 60.8818 16.6667C60.8818 15.628 60.3985 14.7002 59.6408 14.0889C58.8988 13.4901 58.1697 12.7137 58.1697 11.7601V8.23989Z" fill="white"/>
<path d="M13.1895 0C12.8581 0 12.5895 0.268629 12.5895 0.6V11.5079C12.5895 13.9999 11.1654 15.7639 8.65885 15.7639C6.15234 15.7639 4.69971 13.9999 4.69971 11.5079V0.6C4.69971 0.26863 4.43108 0 4.09971 0H0.6C0.268629 0 0 0.268629 0 0.6V11.6199C0 16.5479 3.44645 19.8798 8.65885 19.8798C13.8428 19.8798 17.2892 16.5479 17.2892 11.6199V0.600001C17.2892 0.26863 17.0206 0 16.6892 0H13.1895Z" fill="white"/>
<path d="M30.301 0C30.6324 0 30.901 0.268629 30.901 0.6V11.351C30.901 11.7429 31.406 11.901 31.6295 11.5793L39.4948 0.257672C39.6069 0.0962587 39.791 0 39.9876 0H44.4571C44.7885 0 45.0571 0.268629 45.0571 0.6V18.9998C45.0571 19.3312 44.7885 19.5998 44.4571 19.5998H40.9859C40.6545 19.5998 40.3859 19.3312 40.3859 18.9998V8.01777C40.3859 7.62405 39.8769 7.46719 39.6553 7.79259L31.7917 19.3376C31.68 19.5017 31.4943 19.5998 31.2958 19.5998H26.8298C26.4984 19.5998 26.2298 19.3312 26.2298 18.9998V0.6C26.2298 0.268629 26.4984 0 26.8298 0H30.301Z" fill="white"/>
<path d="M84.2301 0C83.8987 0 83.6301 0.268629 83.6301 0.6V11.351C83.6301 11.7429 83.1251 11.901 82.9016 11.5793L75.0363 0.257672C74.9242 0.0962588 74.7401 0 74.5435 0H70.074C69.7426 0 69.474 0.268629 69.474 0.6V18.9998C69.474 19.3312 69.7426 19.5998 70.074 19.5998H73.5452C73.8766 19.5998 74.1452 19.3312 74.1452 18.9998V8.01776C74.1452 7.62405 74.6542 7.46719 74.8758 7.79259L82.7394 19.3376C82.8511 19.5017 83.0368 19.5998 83.2353 19.5998H87.7013C88.0327 19.5998 88.3013 19.3312 88.3013 18.9998V0.6C88.3013 0.268629 88.0327 0 87.7013 0H84.2301Z" fill="white"/>
<path d="M111.292 3.89197C111.623 3.89197 111.892 3.62334 111.892 3.29197V0.6C111.892 0.268629 111.623 0 111.292 0H98.0508C97.7195 0 97.4508 0.268629 97.4508 0.6V18.9998C97.4508 19.3312 97.7195 19.5998 98.0508 19.5998H111.292C111.623 19.5998 111.892 19.3312 111.892 18.9998V16.3079C111.892 15.9765 111.623 15.7079 111.292 15.7079H102.665C102.334 15.7079 102.065 15.4392 102.065 15.1079V11.8839C102.065 11.5525 102.334 11.2839 102.665 11.2839H110.808C111.139 11.2839 111.408 11.0153 111.408 10.6839V8.27194C111.408 7.94057 111.139 7.67194 110.808 7.67194H102.665C102.334 7.67194 102.065 7.40331 102.065 7.07194V4.49197C102.065 4.1606 102.334 3.89197 102.665 3.89197H111.292Z" fill="white"/>
<path d="M135.013 3.89197C135.344 3.89197 135.613 3.62334 135.613 3.29197V0.6C135.613 0.268629 135.344 0 135.013 0H121.772C121.441 0 121.172 0.268629 121.172 0.6V18.9998C121.172 19.3312 121.441 19.5998 121.772 19.5998H135.013C135.344 19.5998 135.613 19.3312 135.613 18.9998V16.3079C135.613 15.9765 135.344 15.7079 135.013 15.7079H126.386C126.055 15.7079 125.786 15.4392 125.786 15.1079V11.8839C125.786 11.5525 126.055 11.2839 126.386 11.2839H134.529C134.86 11.2839 135.129 11.0153 135.129 10.6839V8.27194C135.129 7.94057 134.86 7.67194 134.529 7.67194H126.386C126.055 7.67194 125.786 7.40331 125.786 7.07194V4.49197C125.786 4.1606 126.055 3.89197 126.386 3.89197H135.013Z" fill="white"/>
<path d="M153.153 0H145.493C145.162 0 144.893 0.268629 144.893 0.6V18.9998C144.893 19.3312 145.162 19.5998 145.493 19.5998H153.153C159.191 19.5998 163.749 15.4279 163.749 9.79992C163.749 4.19997 159.191 0 153.153 0ZM153.238 15.5679H150.221C149.89 15.5679 149.621 15.2992 149.621 14.9679V4.63197C149.621 4.3006 149.89 4.03197 150.221 4.03197H153.238C156.628 4.03197 158.992 6.52395 158.992 9.79992C158.992 13.0759 156.656 15.5679 153.238 15.5679Z" fill="white"/>
</svg>