<svg width="24" height="24" viewBox="0 0 24 24" fill="none" xmlns="http://www.w3.org/2000/svg">
<mask id="mask0_889_318" style="mask-type:alpha" maskUnits="userSpaceOnUse" x="0" y="0" width="24" height="24">
<rect width="24" height="24" fill="#C4C4C4"/>
</mask>
<g mask="url(#mask0_889_318)">
<path d="M1 1C0.447715 1 0 1.44772 0 2C0 2.55228 0.447715 3 1 3V1ZM8.38094 4.69047C7.82866 4.69047 7.38094 5.13819 7.38094 5.69047C7.38094 6.24276 7.82866 6.69047 8.38094 6.69047V4.69047ZM20.3522 14.6203L19.3978 14.3221L20.3522 14.6203ZM8.01006 14.4573L7.03383 14.6741L8.01006 14.4573ZM1 3H3.63941V1H1V3ZM4.61564 3.78324L7.03383 14.6741L8.98628 14.2405L6.56809 3.34972L4.61564 3.78324ZM9.9625 17.0238H18.4433V15.0238H9.9625V17.0238ZM21.3067 14.9186L23.2859 8.5853L21.3769 7.98875L19.3978 14.3221L21.3067 14.9186ZM20.4224 4.69047H8.38094V6.69047H20.4224V4.69047ZM23.2859 8.5853C23.8896 6.65351 22.4464 4.69047 20.4224 4.69047V6.69047C21.0971 6.69047 21.5781 7.34482 21.3769 7.98875L23.2859 8.5853ZM18.4433 17.0238C19.7554 17.0238 20.9153 16.171 21.3067 14.9186L19.3978 14.3221C19.2673 14.7395 18.8807 15.0238 18.4433 15.0238V17.0238ZM7.03383 14.6741C7.33866 16.0469 8.55621 17.0238 9.9625 17.0238V15.0238C9.49374 15.0238 9.08789 14.6982 8.98628 14.2405L7.03383 14.6741ZM3.63941 3C4.10818 3 4.51403 3.32562 4.61564 3.78324L6.56809 3.34972C6.26326 1.97686 5.0457 1 3.63941 1V3Z" fill="black"/>
<circle cx="11.5" cy="20.5" r="1.5" stroke="black" stroke-width="2"/>
<circle cx="17.5" cy="20.5" r="1.5" stroke="black" stroke-width="2"/>
</g>
</svg>
