<svg width="241" height="241" viewBox="0 0 241 241" fill="none" xmlns="http://www.w3.org/2000/svg">
<circle cx="120.5" cy="120.5" r="120.5" fill="#EFF9FB"/>
<g clip-path="url(#clip0_4011_27788)">
<path d="M164.334 66.833H77.6673C72.2507 66.833 66.834 71.708 66.834 77.6663V93.9705C66.834 97.8705 69.1632 101.229 72.2507 103.125V164.333C72.2507 170.291 78.209 175.166 83.084 175.166H158.917C163.792 175.166 169.751 170.291 169.751 164.333V103.125C172.838 101.229 175.167 97.8705 175.167 93.9705V77.6663C175.167 71.708 169.751 66.833 164.334 66.833ZM158.917 164.333H83.084V104.75H158.917V164.333ZM164.334 93.9163H77.6673V77.6663H164.334V93.9163Z" fill="#39B38A"/>
<rect x="126" y="123" width="59" height="59" rx="29.5" fill="#39B38A"/>
<rect x="119" y="119" width="64" height="64" rx="32" fill="#39B38A" stroke="#EFF9FB" stroke-width="6"/>
<path d="M134 146.385H158.75C163.306 146.385 167 150.104 167 154.692C167 159.281 163.306 163 158.75 163H150.5M134 146.385L141.333 139M134 146.385L141.333 153.769" stroke="white" stroke-width="7" stroke-linecap="square" stroke-linejoin="round"/>
</g>
<defs>
<clipPath id="clip0_4011_27788">
<rect width="130" height="130" fill="white" transform="translate(56 56)"/>
</clipPath>
</defs>
</svg>
